<svg width="305" height="64" viewBox="0 0 305 64" fill="none" xmlns="http://www.w3.org/2000/svg">
<path d="M97.32 34.808L93.768 38.6V47H84.36V13.4H93.768V27.368L106.776 13.4H117.24L103.512 28.28L117.96 47H106.92L97.32 34.808ZM119.553 20.984H128.673V47H119.553V20.984ZM124.113 18.104C122.449 18.104 121.105 17.64 120.081 16.712C119.057 15.784 118.545 14.632 118.545 13.256C118.545 11.88 119.057 10.728 120.081 9.8C121.105 8.872 122.449 8.408 124.113 8.408C125.777 8.408 127.121 8.856 128.145 9.752C129.169 10.616 129.681 11.736 129.681 13.112C129.681 14.552 129.169 15.752 128.145 16.712C127.121 17.64 125.777 18.104 124.113 18.104ZM150.968 20.552C153.336 20.552 155.48 21.096 157.4 22.184C159.352 23.272 160.888 24.84 162.008 26.888C163.16 28.904 163.736 31.256 163.736 33.944C163.736 36.632 163.16 39 162.008 41.048C160.888 43.096 159.352 44.68 157.4 45.8C155.48 46.888 153.336 47.432 150.968 47.432C147.544 47.432 144.984 46.424 143.288 44.408V47H134.6V11.384H143.72V23.24C145.48 21.448 147.896 20.552 150.968 20.552ZM149.048 40.184C150.648 40.184 151.96 39.64 152.984 38.552C154.008 37.432 154.52 35.896 154.52 33.944C154.52 32.024 154.008 30.52 152.984 29.432C151.96 28.344 150.648 27.8 149.048 27.8C147.448 27.8 146.136 28.344 145.112 29.432C144.088 30.52 143.576 32.024 143.576 33.944C143.576 35.896 144.088 37.432 145.112 38.552C146.136 39.64 147.448 40.184 149.048 40.184ZM181.031 47.432C178.247 47.432 175.735 46.856 173.495 45.704C171.255 44.552 169.495 42.952 168.215 40.904C166.967 38.856 166.343 36.536 166.343 33.944C166.343 31.384 166.967 29.08 168.215 27.032C169.495 24.984 171.239 23.4 173.447 22.28C175.687 21.128 178.215 20.552 181.031 20.552C183.847 20.552 186.375 21.128 188.615 22.28C190.855 23.4 192.599 24.984 193.847 27.032C195.095 29.048 195.719 31.352 195.719 33.944C195.719 36.536 195.095 38.856 193.847 40.904C192.599 42.952 190.855 44.552 188.615 45.704C186.375 46.856 183.847 47.432 181.031 47.432ZM181.031 40.184C182.631 40.184 183.943 39.64 184.967 38.552C185.991 37.432 186.503 35.896 186.503 33.944C186.503 32.024 185.991 30.52 184.967 29.432C183.943 28.344 182.631 27.8 181.031 27.8C179.431 27.8 178.119 28.344 177.095 29.432C176.071 30.52 175.559 32.024 175.559 33.944C175.559 35.896 176.071 37.432 177.095 38.552C178.119 39.64 179.431 40.184 181.031 40.184ZM217.896 45.944C217.128 46.424 216.184 46.792 215.064 47.048C213.976 47.304 212.808 47.432 211.56 47.432C208.168 47.432 205.56 46.6 203.736 44.936C201.912 43.272 201 40.792 201 37.496V28.76H197.208V21.944H201V15.176H210.12V21.944H216.072V28.76H210.12V37.4C210.12 38.328 210.36 39.064 210.84 39.608C211.352 40.12 212.024 40.376 212.856 40.376C213.912 40.376 214.84 40.104 215.64 39.56L217.896 45.944ZM230.1 24.104C231.028 22.92 232.228 22.04 233.7 21.464C235.204 20.856 236.916 20.552 238.836 20.552V28.76C238.004 28.664 237.316 28.616 236.772 28.616C234.82 28.616 233.284 29.144 232.164 30.2C231.076 31.256 230.532 32.872 230.532 35.048V47H221.412V20.984H230.1V24.104ZM255.422 47.432C252.638 47.432 250.126 46.856 247.886 45.704C245.646 44.552 243.886 42.952 242.605 40.904C241.358 38.856 240.734 36.536 240.734 33.944C240.734 31.384 241.358 29.08 242.605 27.032C243.886 24.984 245.63 23.4 247.838 22.28C250.078 21.128 252.606 20.552 255.422 20.552C258.238 20.552 260.766 21.128 263.006 22.28C265.246 23.4 266.99 24.984 268.238 27.032C269.486 29.048 270.11 31.352 270.11 33.944C270.11 36.536 269.486 38.856 268.238 40.904C266.99 42.952 265.246 44.552 263.006 45.704C260.766 46.856 258.238 47.432 255.422 47.432ZM255.422 40.184C257.022 40.184 258.334 39.64 259.358 38.552C260.382 37.432 260.894 35.896 260.894 33.944C260.894 32.024 260.382 30.52 259.358 29.432C258.334 28.344 257.022 27.8 255.422 27.8C253.822 27.8 252.51 28.344 251.486 29.432C250.462 30.52 249.95 32.024 249.95 33.944C249.95 35.896 250.462 37.432 251.486 38.552C252.51 39.64 253.822 40.184 255.422 40.184ZM291.278 20.552C294.51 20.552 297.102 21.512 299.054 23.432C301.038 25.352 302.03 28.248 302.03 32.12V47H292.91V33.608C292.91 30.056 291.486 28.28 288.638 28.28C287.07 28.28 285.806 28.792 284.846 29.816C283.918 30.84 283.454 32.376 283.454 34.424V47H274.334V20.984H283.022V23.816C284.046 22.76 285.262 21.96 286.67 21.416C288.078 20.84 289.614 20.552 291.278 20.552Z" fill="white"/>
<g clip-path="url(#clip0_4430_3)">
<path fill-rule="evenodd" clip-rule="evenodd" d="M0 6.4751L44.9782 13.7053L57.525 25.2915L23.4493 64.0001L0 6.4751ZM7.9331 15.2456L23.2382 52.7916L26.8981 30.0072L7.9331 15.2456ZM30.84 30.9293L27.1897 53.6542L49.5896 28.2086L30.84 30.9293ZM50.2509 24.0547L35.3162 26.2217L44.0391 18.3185L50.2509 24.0547ZM39.5993 16.9083L10.6406 12.2533L28.9811 26.5288L39.5993 16.9083Z" fill="url(#paint0_linear_4430_3)"/>
</g>
<defs>
<linearGradient id="paint0_linear_4430_3" x1="-28.72" y1="35.1951" x2="28.72" y2="92.6352" gradientUnits="userSpaceOnUse">
<stop stop-color="#00FFAA"/>
<stop offset="0.530854" stop-color="#4579F5"/>
<stop offset="0.999815" stop-color="#9C42F5"/>
</linearGradient>
<clipPath id="clip0_4430_3">
<rect width="59" height="59" fill="white" transform="translate(0 5)"/>
</clipPath>
</defs>
</svg>
