<svg width="319" height="371" viewBox="0 0 319 371" fill="none" xmlns="http://www.w3.org/2000/svg">
<g filter="url(#filter0_f_4420_6)">
<ellipse cx="159.5" cy="251" rx="79.5" ry="40" fill="#A2DC89" fill-opacity="0.4"/>
</g>
<mask id="mask0_4420_6" style="mask-type:alpha" maskUnits="userSpaceOnUse" x="108" y="10" width="53" height="237">
<path d="M108 21.45L134.044 10.231L160.088 21.45V236.214L134.044 246.231L108 236.214V21.45Z" fill="#05030E"/>
</mask>
<g mask="url(#mask0_4420_6)">
<path d="M108 119.689L134.044 108.47L160.088 119.689V334.453L134.044 344.47L108 334.453V119.689Z" fill="#D5AB32"/>
<g opacity="0.25">
<path d="M108 98.8535L134.044 87.6345L160.088 98.8535V313.618L134.044 323.635L108 313.618V98.8535Z" fill="#DC9839" fill-opacity="0.6"/>
<mask id="mask1_4420_6" style="mask-type:alpha" maskUnits="userSpaceOnUse" x="108" y="87" width="53" height="237">
<path d="M108 98.8535L134.044 87.6345L160.088 98.8535V313.618L134.044 323.635L108 313.618V98.8535Z" fill="#7EE8A0"/>
</mask>
<g mask="url(#mask1_4420_6)">
<path d="M89.5687 91.6414L134.445 108.871V324.035L96.781 309.611L89.5687 91.6414Z" fill="#DC9839" fill-opacity="0.6"/>
</g>
</g>
<g opacity="0.5">
<path d="M108 107.668L134.044 96.4495L160.088 107.668V322.432L134.044 332.449L108 322.432V107.668Z" fill="#DC9839" fill-opacity="0.6"/>
<mask id="mask2_4420_6" style="mask-type:alpha" maskUnits="userSpaceOnUse" x="108" y="96" width="53" height="237">
<path d="M108 107.668L134.044 96.4495L160.088 107.668V322.432L134.044 332.449L108 322.432V107.668Z" fill="#7EE8A0"/>
</mask>
<g mask="url(#mask2_4420_6)">
<path d="M89.5687 100.456L134.445 117.685V332.85L96.781 318.426L89.5687 100.456Z" fill="#DC9839" fill-opacity="0.6"/>
</g>
</g>
</g>
<mask id="mask3_4420_6" style="mask-type:alpha" maskUnits="userSpaceOnUse" x="108" y="10" width="53" height="237">
<path d="M108 21.45L134.044 10.231L160.088 21.45V236.214L134.044 246.231L108 236.214V21.45Z" fill="#7EE8A0"/>
</mask>
<g mask="url(#mask3_4420_6)">
<path d="M89.5688 114.808L134.445 132.037V347.202L96.781 332.778L89.5688 114.808Z" fill="#BF8C44" fill-opacity="0.6"/>
</g>
<mask id="mask4_4420_6" style="mask-type:alpha" maskUnits="userSpaceOnUse" x="152" y="0" width="60" height="270">
<path d="M152 12.7988L181.711 0L211.423 12.7988V257.803L181.711 269.231L152 257.803V12.7988Z" fill="#05030E"/>
</mask>
<g mask="url(#mask4_4420_6)">
<path d="M152 90.7988L181.711 78L211.423 90.7988V335.803L181.711 347.231L152 335.803V90.7988Z" fill="#7EE8A0"/>
<g opacity="0.25">
<path d="M152 67.0297L181.711 54.231L211.423 67.0297V312.034L181.711 323.462L152 312.034V67.0297Z" fill="#7EE8A0"/>
<mask id="mask5_4420_6" style="mask-type:alpha" maskUnits="userSpaceOnUse" x="152" y="54" width="60" height="270">
<path d="M152 67.0297L181.711 54.231L211.423 67.0297V312.034L181.711 323.462L152 312.034V67.0297Z" fill="#7EE8A0"/>
</mask>
<g mask="url(#mask5_4420_6)">
<path d="M130.973 58.802L182.168 78.4572V323.919L139.201 307.463L130.973 58.802Z" fill="#75CF92"/>
</g>
</g>
<g opacity="0.5">
<path d="M152 77.0859L181.711 64.2871L211.423 77.0859V322.091L181.711 333.518L152 322.091V77.0859Z" fill="#7EE8A0"/>
<mask id="mask6_4420_6" style="mask-type:alpha" maskUnits="userSpaceOnUse" x="152" y="64" width="60" height="270">
<path d="M152 77.0859L181.711 64.2871L211.423 77.0859V322.091L181.711 333.518L152 322.091V77.0859Z" fill="#7EE8A0"/>
</mask>
<g mask="url(#mask6_4420_6)">
<path d="M130.973 68.8582L182.168 88.5134V333.975L139.201 317.52L130.973 68.8582Z" fill="#75CF92"/>
</g>
</g>
</g>
<mask id="mask7_4420_6" style="mask-type:alpha" maskUnits="userSpaceOnUse" x="152" y="0" width="60" height="270">
<path d="M152 12.7988L181.711 0L211.423 12.7988V257.803L181.711 269.231L152 257.803V12.7988Z" fill="#7EE8A0"/>
</mask>
<g mask="url(#mask7_4420_6)">
<path d="M130.973 85.231L182.168 104.886V350.348L139.201 333.892L130.973 85.231Z" fill="#75CF92"/>
</g>
<path d="M167.416 16.2V33H163.528V19.32H160.168V16.2H167.416ZM176.094 22.512C178.462 22.512 180.206 22.984 181.326 23.928C182.462 24.872 183.03 26.136 183.03 27.72C183.03 28.744 182.774 29.68 182.262 30.528C181.75 31.36 180.966 32.032 179.91 32.544C178.87 33.04 177.582 33.288 176.046 33.288C174.862 33.288 173.694 33.136 172.542 32.832C171.406 32.512 170.438 32.064 169.638 31.488L171.174 28.512C171.814 28.992 172.55 29.368 173.382 29.64C174.214 29.896 175.07 30.024 175.95 30.024C176.926 30.024 177.694 29.832 178.254 29.448C178.814 29.064 179.094 28.528 179.094 27.84C179.094 27.12 178.798 26.576 178.206 26.208C177.63 25.84 176.622 25.656 175.182 25.656H170.886L171.75 16.2H181.998V19.32H174.99L174.726 22.512H176.094ZM188.262 25.272C187.03 25.272 186.022 24.856 185.238 24.024C184.47 23.176 184.086 22.048 184.086 20.64C184.086 19.232 184.47 18.112 185.238 17.28C186.022 16.432 187.03 16.008 188.262 16.008C189.494 16.008 190.494 16.432 191.262 17.28C192.03 18.112 192.414 19.232 192.414 20.64C192.414 22.048 192.03 23.176 191.262 24.024C190.494 24.856 189.494 25.272 188.262 25.272ZM198.27 16.2H201.126L189.654 33H186.798L198.27 16.2ZM188.262 23.304C188.806 23.304 189.23 23.08 189.534 22.632C189.854 22.184 190.014 21.52 190.014 20.64C190.014 19.76 189.854 19.096 189.534 18.648C189.23 18.2 188.806 17.976 188.262 17.976C187.734 17.976 187.31 18.208 186.99 18.672C186.67 19.12 186.51 19.776 186.51 20.64C186.51 21.504 186.67 22.168 186.99 22.632C187.31 23.08 187.734 23.304 188.262 23.304ZM199.662 33.192C198.862 33.192 198.142 33.008 197.502 32.64C196.878 32.256 196.39 31.712 196.038 31.008C195.686 30.304 195.51 29.488 195.51 28.56C195.51 27.632 195.686 26.816 196.038 26.112C196.39 25.408 196.878 24.872 197.502 24.504C198.142 24.12 198.862 23.928 199.662 23.928C200.894 23.928 201.894 24.352 202.662 25.2C203.446 26.032 203.838 27.152 203.838 28.56C203.838 29.968 203.446 31.096 202.662 31.944C201.894 32.776 200.894 33.192 199.662 33.192ZM199.662 31.224C200.206 31.224 200.63 31 200.934 30.552C201.254 30.088 201.414 29.424 201.414 28.56C201.414 27.696 201.254 27.04 200.934 26.592C200.63 26.128 200.206 25.896 199.662 25.896C199.134 25.896 198.71 26.12 198.39 26.568C198.07 27.016 197.91 27.68 197.91 28.56C197.91 29.44 198.07 30.104 198.39 30.552C198.71 31 199.134 31.224 199.662 31.224Z" fill="#A2DC89"/>
<path d="M117.253 56.1V68H114.499V58.31H112.119V56.1H117.253ZM124.42 68.204C123.434 68.204 122.556 67.9603 121.785 67.473C121.015 66.9857 120.408 66.283 119.966 65.365C119.536 64.4357 119.32 63.3307 119.32 62.05C119.32 60.7693 119.536 59.67 119.966 58.752C120.408 57.8227 121.015 57.1143 121.785 56.627C122.556 56.1397 123.434 55.896 124.42 55.896C125.406 55.896 126.285 56.1397 127.055 56.627C127.826 57.1143 128.427 57.8227 128.857 58.752C129.299 59.67 129.52 60.7693 129.52 62.05C129.52 63.3307 129.299 64.4357 128.857 65.365C128.427 66.283 127.826 66.9857 127.055 67.473C126.285 67.9603 125.406 68.204 124.42 68.204ZM124.42 65.875C125.146 65.875 125.712 65.5633 126.12 64.94C126.54 64.3167 126.749 63.3533 126.749 62.05C126.749 60.7467 126.54 59.7833 126.12 59.16C125.712 58.5367 125.146 58.225 124.42 58.225C123.706 58.225 123.14 58.5367 122.72 59.16C122.312 59.7833 122.108 60.7467 122.108 62.05C122.108 63.3533 122.312 64.3167 122.72 64.94C123.14 65.5633 123.706 65.875 124.42 65.875ZM133.612 62.526C132.74 62.526 132.026 62.2313 131.47 61.642C130.926 61.0413 130.654 60.2423 130.654 59.245C130.654 58.2477 130.926 57.4543 131.47 56.865C132.026 56.2643 132.74 55.964 133.612 55.964C134.485 55.964 135.193 56.2643 135.737 56.865C136.281 57.4543 136.553 58.2477 136.553 59.245C136.553 60.2423 136.281 61.0413 135.737 61.642C135.193 62.2313 134.485 62.526 133.612 62.526ZM140.701 56.1H142.724L134.598 68H132.575L140.701 56.1ZM133.612 61.132C133.998 61.132 134.298 60.9733 134.513 60.656C134.74 60.3387 134.853 59.8683 134.853 59.245C134.853 58.6217 134.74 58.1513 134.513 57.834C134.298 57.5167 133.998 57.358 133.612 57.358C133.238 57.358 132.938 57.5223 132.711 57.851C132.485 58.1683 132.371 58.633 132.371 59.245C132.371 59.857 132.485 60.3273 132.711 60.656C132.938 60.9733 133.238 61.132 133.612 61.132ZM141.687 68.136C141.121 68.136 140.611 68.0057 140.157 67.745C139.715 67.473 139.37 67.0877 139.12 66.589C138.871 66.0903 138.746 65.5123 138.746 64.855C138.746 64.1977 138.871 63.6197 139.12 63.121C139.37 62.6223 139.715 62.2427 140.157 61.982C140.611 61.71 141.121 61.574 141.687 61.574C142.56 61.574 143.268 61.8743 143.812 62.475C144.368 63.0643 144.645 63.8577 144.645 64.855C144.645 65.8523 144.368 66.6513 143.812 67.252C143.268 67.8413 142.56 68.136 141.687 68.136ZM141.687 66.742C142.073 66.742 142.373 66.5833 142.588 66.266C142.815 65.9373 142.928 65.467 142.928 64.855C142.928 64.243 142.815 63.7783 142.588 63.461C142.373 63.1323 142.073 62.968 141.687 62.968C141.313 62.968 141.013 63.1267 140.786 63.444C140.56 63.7613 140.446 64.2317 140.446 64.855C140.446 65.4783 140.56 65.9487 140.786 66.266C141.013 66.5833 141.313 66.742 141.687 66.742Z" fill="#E99A3D"/>
<defs>
<filter id="filter0_f_4420_6" x="0" y="131" width="319" height="240" filterUnits="userSpaceOnUse" color-interpolation-filters="sRGB">
<feFlood flood-opacity="0" result="BackgroundImageFix"/>
<feBlend mode="normal" in="SourceGraphic" in2="BackgroundImageFix" result="shape"/>
<feGaussianBlur stdDeviation="40" result="effect1_foregroundBlur_4420_6"/>
</filter>
</defs>
</svg>
