<svg width="319" height="371" viewBox="0 0 319 371" fill="none" xmlns="http://www.w3.org/2000/svg">
<g filter="url(#filter0_f_4420_5)">
<ellipse cx="159.5" cy="251" rx="79.5" ry="40" fill="#A2DC89" fill-opacity="0.4"/>
</g>
<mask id="mask0_4420_5" style="mask-type:alpha" maskUnits="userSpaceOnUse" x="104" y="10" width="53" height="237">
<path d="M104 21.45L130.044 10.231L156.088 21.45V236.214L130.044 246.231L104 236.214V21.45Z" fill="#05030E"/>
</mask>
<g mask="url(#mask0_4420_5)">
<path d="M104 139.689L130.044 128.47L156.088 139.689V354.453L130.044 364.47L104 354.453V139.689Z" fill="#D5AB32"/>
<g opacity="0.25">
<path d="M104 118.854L130.044 107.635L156.088 118.854V333.618L130.044 343.635L104 333.618V118.854Z" fill="#DC9839" fill-opacity="0.6"/>
<mask id="mask1_4420_5" style="mask-type:alpha" maskUnits="userSpaceOnUse" x="104" y="107" width="53" height="237">
<path d="M104 118.854L130.044 107.635L156.088 118.854V333.618L130.044 343.635L104 333.618V118.854Z" fill="#7EE8A0"/>
</mask>
<g mask="url(#mask1_4420_5)">
<path d="M85.5687 111.641L130.445 128.871V344.035L92.7809 329.611L85.5687 111.641Z" fill="#DC9839" fill-opacity="0.6"/>
</g>
</g>
<g opacity="0.5">
<path d="M104 127.668L130.044 116.449L156.088 127.668V342.432L130.044 352.449L104 342.432V127.668Z" fill="#DC9839" fill-opacity="0.6"/>
<mask id="mask2_4420_5" style="mask-type:alpha" maskUnits="userSpaceOnUse" x="104" y="116" width="53" height="237">
<path d="M104 127.668L130.044 116.449L156.088 127.668V342.432L130.044 352.449L104 342.432V127.668Z" fill="#7EE8A0"/>
</mask>
<g mask="url(#mask2_4420_5)">
<path d="M85.5687 120.456L130.445 137.685V352.85L92.7809 338.426L85.5687 120.456Z" fill="#DC9839" fill-opacity="0.6"/>
</g>
</g>
</g>
<mask id="mask3_4420_5" style="mask-type:alpha" maskUnits="userSpaceOnUse" x="104" y="10" width="53" height="237">
<path d="M104 21.45L130.044 10.231L156.088 21.45V236.214L130.044 246.231L104 236.214V21.45Z" fill="#7EE8A0"/>
</mask>
<g mask="url(#mask3_4420_5)">
<path d="M85.5688 134.808L130.445 152.037V367.202L92.781 352.778L85.5688 134.808Z" fill="#BF8C44" fill-opacity="0.6"/>
</g>
<mask id="mask4_4420_5" style="mask-type:alpha" maskUnits="userSpaceOnUse" x="148" y="0" width="60" height="270">
<path d="M148 12.7988L177.711 0L207.423 12.7988V257.803L177.711 269.231L148 257.803V12.7988Z" fill="#05030E"/>
</mask>
<g mask="url(#mask4_4420_5)">
<path d="M148 126.799L177.711 114L207.423 126.799V371.803L177.711 383.231L148 371.803V126.799Z" fill="#7EE8A0"/>
<g opacity="0.25">
<path d="M148 103.03L177.711 90.231L207.423 103.03V348.034L177.711 359.462L148 348.034V103.03Z" fill="#7EE8A0"/>
<mask id="mask5_4420_5" style="mask-type:alpha" maskUnits="userSpaceOnUse" x="148" y="90" width="60" height="270">
<path d="M148 103.03L177.711 90.231L207.423 103.03V348.034L177.711 359.462L148 348.034V103.03Z" fill="#7EE8A0"/>
</mask>
<g mask="url(#mask5_4420_5)">
<path d="M126.973 94.802L178.168 114.457V359.919L135.201 343.463L126.973 94.802Z" fill="#75CF92"/>
</g>
</g>
<g opacity="0.5">
<path d="M148 113.086L177.711 100.287L207.423 113.086V358.091L177.711 369.518L148 358.091V113.086Z" fill="#7EE8A0"/>
<mask id="mask6_4420_5" style="mask-type:alpha" maskUnits="userSpaceOnUse" x="148" y="100" width="60" height="270">
<path d="M148 113.086L177.711 100.287L207.423 113.086V358.091L177.711 369.518L148 358.091V113.086Z" fill="#7EE8A0"/>
</mask>
<g mask="url(#mask6_4420_5)">
<path d="M126.973 104.858L178.168 124.513V369.975L135.201 353.52L126.973 104.858Z" fill="#75CF92"/>
</g>
</g>
</g>
<mask id="mask7_4420_5" style="mask-type:alpha" maskUnits="userSpaceOnUse" x="148" y="0" width="60" height="270">
<path d="M148 12.7988L177.711 0L207.423 12.7988V257.803L177.711 269.231L148 257.803V12.7988Z" fill="#7EE8A0"/>
</mask>
<g mask="url(#mask7_4420_5)">
<path d="M126.973 121.231L178.168 140.886V386.348L135.201 369.892L126.973 121.231Z" fill="#75CF92"/>
</g>
<path d="M163.416 54.2V71H159.528V57.32H156.168V54.2H163.416ZM178.886 67.832V71H166.19V68.48L172.67 62.36C173.358 61.704 173.822 61.144 174.062 60.68C174.302 60.2 174.422 59.728 174.422 59.264C174.422 58.592 174.19 58.08 173.726 57.728C173.278 57.36 172.614 57.176 171.734 57.176C170.998 57.176 170.334 57.32 169.742 57.608C169.15 57.88 168.654 58.296 168.254 58.856L165.422 57.032C166.078 56.056 166.982 55.296 168.134 54.752C169.286 54.192 170.606 53.912 172.094 53.912C173.342 53.912 174.43 54.12 175.358 54.536C176.302 54.936 177.03 55.512 177.542 56.264C178.07 57 178.334 57.872 178.334 58.88C178.334 59.792 178.142 60.648 177.758 61.448C177.374 62.248 176.63 63.16 175.526 64.184L171.662 67.832H178.886ZM184.613 63.272C183.381 63.272 182.373 62.856 181.589 62.024C180.821 61.176 180.437 60.048 180.437 58.64C180.437 57.232 180.821 56.112 181.589 55.28C182.373 54.432 183.381 54.008 184.613 54.008C185.845 54.008 186.845 54.432 187.613 55.28C188.381 56.112 188.765 57.232 188.765 58.64C188.765 60.048 188.381 61.176 187.613 62.024C186.845 62.856 185.845 63.272 184.613 63.272ZM194.621 54.2H197.477L186.005 71H183.149L194.621 54.2ZM184.613 61.304C185.157 61.304 185.581 61.08 185.885 60.632C186.205 60.184 186.365 59.52 186.365 58.64C186.365 57.76 186.205 57.096 185.885 56.648C185.581 56.2 185.157 55.976 184.613 55.976C184.085 55.976 183.661 56.208 183.341 56.672C183.021 57.12 182.861 57.776 182.861 58.64C182.861 59.504 183.021 60.168 183.341 60.632C183.661 61.08 184.085 61.304 184.613 61.304ZM196.013 71.192C195.213 71.192 194.493 71.008 193.853 70.64C193.229 70.256 192.741 69.712 192.389 69.008C192.037 68.304 191.861 67.488 191.861 66.56C191.861 65.632 192.037 64.816 192.389 64.112C192.741 63.408 193.229 62.872 193.853 62.504C194.493 62.12 195.213 61.928 196.013 61.928C197.245 61.928 198.245 62.352 199.013 63.2C199.797 64.032 200.189 65.152 200.189 66.56C200.189 67.968 199.797 69.096 199.013 69.944C198.245 70.776 197.245 71.192 196.013 71.192ZM196.013 69.224C196.557 69.224 196.981 69 197.285 68.552C197.605 68.088 197.765 67.424 197.765 66.56C197.765 65.696 197.605 65.04 197.285 64.592C196.981 64.128 196.557 63.896 196.013 63.896C195.485 63.896 195.061 64.12 194.741 64.568C194.421 65.016 194.261 65.68 194.261 66.56C194.261 67.44 194.421 68.104 194.741 68.552C195.061 69 195.485 69.224 196.013 69.224Z" fill="#A2DC89"/>
<path d="M120.806 88.744C121.395 89.0387 121.843 89.424 122.149 89.9C122.466 90.376 122.625 90.9257 122.625 91.549C122.625 92.2857 122.415 92.9317 121.996 93.487C121.577 94.031 120.987 94.456 120.228 94.762C119.469 95.0567 118.59 95.204 117.593 95.204C116.596 95.204 115.717 95.0567 114.958 94.762C114.21 94.456 113.626 94.031 113.207 93.487C112.799 92.9317 112.595 92.2857 112.595 91.549C112.595 90.9257 112.748 90.376 113.054 89.9C113.371 89.424 113.819 89.0387 114.397 88.744C113.955 88.472 113.615 88.132 113.377 87.724C113.139 87.3047 113.02 86.8287 113.02 86.296C113.02 85.6047 113.213 85.004 113.598 84.494C113.983 83.984 114.522 83.593 115.213 83.321C115.904 83.0377 116.698 82.896 117.593 82.896C118.5 82.896 119.299 83.0377 119.99 83.321C120.693 83.593 121.237 83.984 121.622 84.494C122.007 85.004 122.2 85.6047 122.2 86.296C122.2 86.8287 122.081 87.3047 121.843 87.724C121.605 88.132 121.259 88.472 120.806 88.744ZM117.593 84.919C117.038 84.919 116.59 85.055 116.25 85.327C115.921 85.5877 115.757 85.9503 115.757 86.415C115.757 86.8683 115.921 87.2253 116.25 87.486C116.579 87.7467 117.026 87.877 117.593 87.877C118.16 87.877 118.613 87.7467 118.953 87.486C119.293 87.2253 119.463 86.8683 119.463 86.415C119.463 85.9503 119.293 85.5877 118.953 85.327C118.613 85.055 118.16 84.919 117.593 84.919ZM117.593 93.181C118.284 93.181 118.828 93.028 119.225 92.722C119.633 92.4047 119.837 91.9853 119.837 91.464C119.837 90.9427 119.633 90.529 119.225 90.223C118.828 89.917 118.284 89.764 117.593 89.764C116.913 89.764 116.375 89.917 115.978 90.223C115.581 90.529 115.383 90.9427 115.383 91.464C115.383 91.9967 115.581 92.416 115.978 92.722C116.375 93.028 116.913 93.181 117.593 93.181ZM126.474 89.526C125.601 89.526 124.887 89.2313 124.332 88.642C123.788 88.0413 123.516 87.2423 123.516 86.245C123.516 85.2477 123.788 84.4543 124.332 83.865C124.887 83.2643 125.601 82.964 126.474 82.964C127.346 82.964 128.055 83.2643 128.599 83.865C129.143 84.4543 129.415 85.2477 129.415 86.245C129.415 87.2423 129.143 88.0413 128.599 88.642C128.055 89.2313 127.346 89.526 126.474 89.526ZM133.563 83.1H135.586L127.46 95H125.437L133.563 83.1ZM126.474 88.132C126.859 88.132 127.159 87.9733 127.375 87.656C127.601 87.3387 127.715 86.8683 127.715 86.245C127.715 85.6217 127.601 85.1513 127.375 84.834C127.159 84.5167 126.859 84.358 126.474 84.358C126.1 84.358 125.799 84.5223 125.573 84.851C125.346 85.1683 125.233 85.633 125.233 86.245C125.233 86.857 125.346 87.3273 125.573 87.656C125.799 87.9733 126.1 88.132 126.474 88.132ZM134.549 95.136C133.982 95.136 133.472 95.0057 133.019 94.745C132.577 94.473 132.231 94.0877 131.982 93.589C131.732 93.0903 131.608 92.5123 131.608 91.855C131.608 91.1977 131.732 90.6197 131.982 90.121C132.231 89.6223 132.577 89.2427 133.019 88.982C133.472 88.71 133.982 88.574 134.549 88.574C135.421 88.574 136.13 88.8743 136.674 89.475C137.229 90.0643 137.507 90.8577 137.507 91.855C137.507 92.8523 137.229 93.6513 136.674 94.252C136.13 94.8413 135.421 95.136 134.549 95.136ZM134.549 93.742C134.934 93.742 135.234 93.5833 135.45 93.266C135.676 92.9373 135.79 92.467 135.79 91.855C135.79 91.243 135.676 90.7783 135.45 90.461C135.234 90.1323 134.934 89.968 134.549 89.968C134.175 89.968 133.874 90.1267 133.648 90.444C133.421 90.7613 133.308 91.2317 133.308 91.855C133.308 92.4783 133.421 92.9487 133.648 93.266C133.874 93.5833 134.175 93.742 134.549 93.742Z" fill="#E99A3D"/>
<defs>
<filter id="filter0_f_4420_5" x="0" y="131" width="319" height="240" filterUnits="userSpaceOnUse" color-interpolation-filters="sRGB">
<feFlood flood-opacity="0" result="BackgroundImageFix"/>
<feBlend mode="normal" in="SourceGraphic" in2="BackgroundImageFix" result="shape"/>
<feGaussianBlur stdDeviation="40" result="effect1_foregroundBlur_4420_5"/>
</filter>
</defs>
</svg>
