<svg width="319" height="466" viewBox="0 0 319 466" fill="none" xmlns="http://www.w3.org/2000/svg">
<g filter="url(#filter0_f_4420_8)">
<ellipse cx="159.5" cy="346" rx="79.5" ry="40" fill="#A2DC89" fill-opacity="0.4"/>
</g>
<mask id="mask0_4420_8" style="mask-type:alpha" maskUnits="userSpaceOnUse" x="108" y="105" width="53" height="237">
<path d="M108 116.45L134.044 105.231L160.088 116.45V331.214L134.044 341.231L108 331.214V116.45Z" fill="#05030E"/>
</mask>
<g mask="url(#mask0_4420_8)">
<path d="M108 154.689L134.044 143.47L160.088 154.689V369.453L134.044 379.47L108 369.453V154.689Z" fill="#D5AB32"/>
<g opacity="0.25">
<path d="M108 133.854L134.044 122.635L160.088 133.854V348.618L134.044 358.635L108 348.618V133.854Z" fill="#DC9839" fill-opacity="0.6"/>
<mask id="mask1_4420_8" style="mask-type:alpha" maskUnits="userSpaceOnUse" x="108" y="122" width="53" height="237">
<path d="M108 133.854L134.044 122.635L160.088 133.854V348.618L134.044 358.635L108 348.618V133.854Z" fill="#7EE8A0"/>
</mask>
<g mask="url(#mask1_4420_8)">
<path d="M89.5687 126.641L134.445 143.871V359.035L96.7809 344.611L89.5687 126.641Z" fill="#DC9839" fill-opacity="0.6"/>
</g>
</g>
<g opacity="0.5">
<path d="M108 142.668L134.044 131.449L160.088 142.668V357.432L134.044 367.449L108 357.432V142.668Z" fill="#DC9839" fill-opacity="0.6"/>
<mask id="mask2_4420_8" style="mask-type:alpha" maskUnits="userSpaceOnUse" x="108" y="131" width="53" height="237">
<path d="M108 142.668L134.044 131.449L160.088 142.668V357.432L134.044 367.449L108 357.432V142.668Z" fill="#7EE8A0"/>
</mask>
<g mask="url(#mask2_4420_8)">
<path d="M89.5687 135.456L134.445 152.685V367.85L96.7809 353.426L89.5687 135.456Z" fill="#DC9839" fill-opacity="0.6"/>
</g>
</g>
</g>
<mask id="mask3_4420_8" style="mask-type:alpha" maskUnits="userSpaceOnUse" x="108" y="105" width="53" height="237">
<path d="M108 116.45L134.044 105.231L160.088 116.45V331.214L134.044 341.231L108 331.214V116.45Z" fill="#7EE8A0"/>
</mask>
<g mask="url(#mask3_4420_8)">
<path d="M89.5688 149.808L134.445 167.037V382.202L96.781 367.778L89.5688 149.808Z" fill="#BF8C44" fill-opacity="0.6"/>
</g>
<mask id="mask4_4420_8" style="mask-type:alpha" maskUnits="userSpaceOnUse" x="152" y="92" width="60" height="270">
<path d="M152 104.799L181.711 92L211.423 104.799V349.803L181.711 361.231L152 349.803V104.799Z" fill="#05030E"/>
</mask>
<g mask="url(#mask4_4420_8)">
<path d="M152 134.799L181.711 122L211.423 134.799V379.803L181.711 391.231L152 379.803V134.799Z" fill="#7EE8A0"/>
<g opacity="0.25">
<path d="M152 111.03L181.711 98.231L211.423 111.03V356.034L181.711 367.462L152 356.034V111.03Z" fill="#7EE8A0"/>
<mask id="mask5_4420_8" style="mask-type:alpha" maskUnits="userSpaceOnUse" x="152" y="98" width="60" height="270">
<path d="M152 111.03L181.711 98.231L211.423 111.03V356.034L181.711 367.462L152 356.034V111.03Z" fill="#7EE8A0"/>
</mask>
<g mask="url(#mask5_4420_8)">
<path d="M130.973 102.802L182.168 122.457V367.919L139.201 351.463L130.973 102.802Z" fill="#75CF92"/>
</g>
</g>
<g opacity="0.5">
<path d="M152 121.086L181.711 108.287L211.423 121.086V366.091L181.711 377.518L152 366.091V121.086Z" fill="#7EE8A0"/>
<mask id="mask6_4420_8" style="mask-type:alpha" maskUnits="userSpaceOnUse" x="152" y="108" width="60" height="270">
<path d="M152 121.086L181.711 108.287L211.423 121.086V366.091L181.711 377.518L152 366.091V121.086Z" fill="#7EE8A0"/>
</mask>
<g mask="url(#mask6_4420_8)">
<path d="M130.973 112.858L182.168 132.513V377.975L139.201 361.52L130.973 112.858Z" fill="#75CF92"/>
</g>
</g>
</g>
<mask id="mask7_4420_8" style="mask-type:alpha" maskUnits="userSpaceOnUse" x="152" y="92" width="60" height="270">
<path d="M152 104.799L181.711 92L211.423 104.799V349.803L181.711 361.231L152 349.803V104.799Z" fill="#7EE8A0"/>
</mask>
<g mask="url(#mask7_4420_8)">
<path d="M130.973 129.231L182.168 148.886V394.348L139.201 377.892L130.973 129.231Z" fill="#75CF92"/>
</g>
<mask id="mask8_4420_8" style="mask-type:alpha" maskUnits="userSpaceOnUse" x="152" y="35" width="60" height="270">
<path d="M152 47.7988L181.711 35L211.423 47.7988V292.803L181.711 304.231L152 292.803V47.7988Z" fill="#05030E"/>
</mask>
<g mask="url(#mask8_4420_8)">
<path d="M152 77.7988L181.711 65L211.423 77.7988V322.803L181.711 334.231L152 322.803V77.7988Z" fill="#7EE8A0"/>
<g opacity="0.25">
<path d="M152 54.0297L181.711 41.231L211.423 54.0297V299.034L181.711 310.462L152 299.034V54.0297Z" fill="#7EE8A0"/>
<mask id="mask9_4420_8" style="mask-type:alpha" maskUnits="userSpaceOnUse" x="152" y="41" width="60" height="270">
<path d="M152 54.0297L181.711 41.231L211.423 54.0297V299.034L181.711 310.462L152 299.034V54.0297Z" fill="#7EE8A0"/>
</mask>
<g mask="url(#mask9_4420_8)">
<path d="M130.973 45.802L182.168 65.4572V310.919L139.201 294.463L130.973 45.802Z" fill="#75CF92"/>
</g>
</g>
<g opacity="0.5">
<path d="M152 64.0859L181.711 51.2871L211.423 64.0859V309.091L181.711 320.518L152 309.091V64.0859Z" fill="#7EE8A0"/>
<mask id="mask10_4420_8" style="mask-type:alpha" maskUnits="userSpaceOnUse" x="152" y="51" width="60" height="270">
<path d="M152 64.0859L181.711 51.2871L211.423 64.0859V309.091L181.711 320.518L152 309.091V64.0859Z" fill="#7EE8A0"/>
</mask>
<g mask="url(#mask10_4420_8)">
<path d="M130.973 55.8582L182.168 75.5134V320.975L139.201 304.52L130.973 55.8582Z" fill="#75CF92"/>
</g>
</g>
</g>
<mask id="mask11_4420_8" style="mask-type:alpha" maskUnits="userSpaceOnUse" x="152" y="35" width="60" height="270">
<path d="M152 47.7988L181.711 35L211.423 47.7988V292.803L181.711 304.231L152 292.803V47.7988Z" fill="#7EE8A0"/>
</mask>
<g mask="url(#mask11_4420_8)">
<path d="M130.973 72.231L182.168 91.8862V337.348L139.201 320.892L130.973 72.231Z" fill="#75CF92"/>
</g>
<path d="M160.488 16.832V20H147.792V17.48L154.272 11.36C154.96 10.704 155.424 10.144 155.664 9.68C155.904 9.2 156.024 8.728 156.024 8.264C156.024 7.592 155.792 7.08 155.328 6.728C154.88 6.36 154.216 6.176 153.336 6.176C152.6 6.176 151.936 6.32 151.344 6.608C150.752 6.88 150.256 7.296 149.856 7.856L147.024 6.032C147.68 5.056 148.584 4.296 149.736 3.752C150.888 3.192 152.208 2.912 153.696 2.912C154.944 2.912 156.032 3.12 156.96 3.536C157.904 3.936 158.632 4.512 159.144 5.264C159.672 6 159.936 6.872 159.936 7.88C159.936 8.792 159.744 9.648 159.36 10.448C158.976 11.248 158.232 12.16 157.128 13.184L153.264 16.832H160.488ZM174.644 16.832V20H161.948V17.48L168.428 11.36C169.116 10.704 169.58 10.144 169.82 9.68C170.06 9.2 170.18 8.728 170.18 8.264C170.18 7.592 169.948 7.08 169.484 6.728C169.036 6.36 168.372 6.176 167.492 6.176C166.756 6.176 166.092 6.32 165.5 6.608C164.908 6.88 164.412 7.296 164.012 7.856L161.18 6.032C161.836 5.056 162.74 4.296 163.892 3.752C165.044 3.192 166.364 2.912 167.852 2.912C169.1 2.912 170.188 3.12 171.116 3.536C172.06 3.936 172.788 4.512 173.3 5.264C173.828 6 174.092 6.872 174.092 7.88C174.092 8.792 173.9 9.648 173.516 10.448C173.132 11.248 172.388 12.16 171.284 13.184L167.42 16.832H174.644ZM178.691 20.192C178.035 20.192 177.483 19.968 177.035 19.52C176.587 19.072 176.363 18.512 176.363 17.84C176.363 17.152 176.587 16.6 177.035 16.184C177.483 15.752 178.035 15.536 178.691 15.536C179.347 15.536 179.899 15.752 180.347 16.184C180.795 16.6 181.019 17.152 181.019 17.84C181.019 18.512 180.795 19.072 180.347 19.52C179.899 19.968 179.347 20.192 178.691 20.192ZM188.524 9.512C190.892 9.512 192.636 9.984 193.756 10.928C194.892 11.872 195.46 13.136 195.46 14.72C195.46 15.744 195.204 16.68 194.692 17.528C194.18 18.36 193.396 19.032 192.34 19.544C191.3 20.04 190.012 20.288 188.476 20.288C187.292 20.288 186.124 20.136 184.972 19.832C183.836 19.512 182.868 19.064 182.068 18.488L183.604 15.512C184.244 15.992 184.98 16.368 185.812 16.64C186.644 16.896 187.5 17.024 188.38 17.024C189.356 17.024 190.124 16.832 190.684 16.448C191.244 16.064 191.524 15.528 191.524 14.84C191.524 14.12 191.228 13.576 190.636 13.208C190.06 12.84 189.052 12.656 187.612 12.656H183.316L184.18 3.2H194.428V6.32H187.42L187.156 9.512H188.524ZM200.691 12.272C199.459 12.272 198.451 11.856 197.667 11.024C196.899 10.176 196.515 9.048 196.515 7.64C196.515 6.232 196.899 5.112 197.667 4.28C198.451 3.432 199.459 3.008 200.691 3.008C201.923 3.008 202.923 3.432 203.691 4.28C204.459 5.112 204.843 6.232 204.843 7.64C204.843 9.048 204.459 10.176 203.691 11.024C202.923 11.856 201.923 12.272 200.691 12.272ZM210.699 3.2H213.555L202.083 20H199.227L210.699 3.2ZM200.691 10.304C201.235 10.304 201.659 10.08 201.963 9.632C202.283 9.184 202.443 8.52 202.443 7.64C202.443 6.76 202.283 6.096 201.963 5.648C201.659 5.2 201.235 4.976 200.691 4.976C200.163 4.976 199.739 5.208 199.419 5.672C199.099 6.12 198.939 6.776 198.939 7.64C198.939 8.504 199.099 9.168 199.419 9.632C199.739 10.08 200.163 10.304 200.691 10.304ZM212.091 20.192C211.291 20.192 210.571 20.008 209.931 19.64C209.307 19.256 208.819 18.712 208.467 18.008C208.115 17.304 207.939 16.488 207.939 15.56C207.939 14.632 208.115 13.816 208.467 13.112C208.819 12.408 209.307 11.872 209.931 11.504C210.571 11.12 211.291 10.928 212.091 10.928C213.323 10.928 214.323 11.352 215.091 12.2C215.875 13.032 216.267 14.152 216.267 15.56C216.267 16.968 215.875 18.096 215.091 18.944C214.323 19.776 213.323 20.192 212.091 20.192ZM212.091 18.224C212.635 18.224 213.059 18 213.363 17.552C213.683 17.088 213.843 16.424 213.843 15.56C213.843 14.696 213.683 14.04 213.363 13.592C213.059 13.128 212.635 12.896 212.091 12.896C211.563 12.896 211.139 13.12 210.819 13.568C210.499 14.016 210.339 14.68 210.339 15.56C210.339 16.44 210.499 17.104 210.819 17.552C211.139 18 211.563 18.224 212.091 18.224Z" fill="#A2DC89"/>
<path d="M117.253 94.1V106H114.499V96.31H112.119V94.1H117.253ZM123.4 98.571C125.078 98.571 126.313 98.9053 127.106 99.574C127.911 100.243 128.313 101.138 128.313 102.26C128.313 102.985 128.132 103.648 127.769 104.249C127.407 104.838 126.851 105.314 126.103 105.677C125.367 106.028 124.454 106.204 123.366 106.204C122.528 106.204 121.7 106.096 120.884 105.881C120.08 105.654 119.394 105.337 118.827 104.929L119.915 102.821C120.369 103.161 120.89 103.427 121.479 103.62C122.069 103.801 122.675 103.892 123.298 103.892C123.99 103.892 124.534 103.756 124.93 103.484C125.327 103.212 125.525 102.832 125.525 102.345C125.525 101.835 125.316 101.45 124.896 101.189C124.488 100.928 123.774 100.798 122.754 100.798H119.711L120.323 94.1H127.582V96.31H122.618L122.431 98.571H123.4ZM132.019 100.526C131.146 100.526 130.432 100.231 129.877 99.642C129.333 99.0413 129.061 98.2423 129.061 97.245C129.061 96.2477 129.333 95.4543 129.877 94.865C130.432 94.2643 131.146 93.964 132.019 93.964C132.891 93.964 133.6 94.2643 134.144 94.865C134.688 95.4543 134.96 96.2477 134.96 97.245C134.96 98.2423 134.688 99.0413 134.144 99.642C133.6 100.231 132.891 100.526 132.019 100.526ZM139.108 94.1H141.131L133.005 106H130.982L139.108 94.1ZM132.019 99.132C132.404 99.132 132.704 98.9733 132.92 98.656C133.146 98.3387 133.26 97.8683 133.26 97.245C133.26 96.6217 133.146 96.1513 132.92 95.834C132.704 95.5167 132.404 95.358 132.019 95.358C131.645 95.358 131.344 95.5223 131.118 95.851C130.891 96.1683 130.778 96.633 130.778 97.245C130.778 97.857 130.891 98.3273 131.118 98.656C131.344 98.9733 131.645 99.132 132.019 99.132ZM140.094 106.136C139.527 106.136 139.017 106.006 138.564 105.745C138.122 105.473 137.776 105.088 137.527 104.589C137.277 104.09 137.153 103.512 137.153 102.855C137.153 102.198 137.277 101.62 137.527 101.121C137.776 100.622 138.122 100.243 138.564 99.982C139.017 99.71 139.527 99.574 140.094 99.574C140.966 99.574 141.675 99.8743 142.219 100.475C142.774 101.064 143.052 101.858 143.052 102.855C143.052 103.852 142.774 104.651 142.219 105.252C141.675 105.841 140.966 106.136 140.094 106.136ZM140.094 104.742C140.479 104.742 140.779 104.583 140.995 104.266C141.221 103.937 141.335 103.467 141.335 102.855C141.335 102.243 141.221 101.778 140.995 101.461C140.779 101.132 140.479 100.968 140.094 100.968C139.72 100.968 139.419 101.127 139.193 101.444C138.966 101.761 138.853 102.232 138.853 102.855C138.853 103.478 138.966 103.949 139.193 104.266C139.419 104.583 139.72 104.742 140.094 104.742Z" fill="#E99A3D"/>
<defs>
<filter id="filter0_f_4420_8" x="0" y="226" width="319" height="240" filterUnits="userSpaceOnUse" color-interpolation-filters="sRGB">
<feFlood flood-opacity="0" result="BackgroundImageFix"/>
<feBlend mode="normal" in="SourceGraphic" in2="BackgroundImageFix" result="shape"/>
<feGaussianBlur stdDeviation="40" result="effect1_foregroundBlur_4420_8"/>
</filter>
</defs>
</svg>
