<svg width="319" height="371" viewBox="0 0 319 371" fill="none" xmlns="http://www.w3.org/2000/svg">
<g filter="url(#filter0_f_4420_4)">
<ellipse cx="159.5" cy="251" rx="79.5" ry="40" fill="#A2DC89" fill-opacity="0.4"/>
</g>
<mask id="mask0_4420_4" style="mask-type:alpha" maskUnits="userSpaceOnUse" x="105" y="10" width="53" height="237">
<path d="M105 21.45L131.044 10.231L157.088 21.45V236.214L131.044 246.231L105 236.214V21.45Z" fill="#05030E"/>
</mask>
<g mask="url(#mask0_4420_4)">
<path d="M105 174.689L131.044 163.47L157.088 174.689V389.453L131.044 399.47L105 389.453V174.689Z" fill="#D5AB32"/>
<g opacity="0.25">
<path d="M105 153.854L131.044 142.635L157.088 153.854V368.618L131.044 378.635L105 368.618V153.854Z" fill="#DC9839" fill-opacity="0.6"/>
<mask id="mask1_4420_4" style="mask-type:alpha" maskUnits="userSpaceOnUse" x="105" y="142" width="53" height="237">
<path d="M105 153.854L131.044 142.635L157.088 153.854V368.618L131.044 378.635L105 368.618V153.854Z" fill="#7EE8A0"/>
</mask>
<g mask="url(#mask1_4420_4)">
<path d="M86.5687 146.641L131.445 163.871V379.035L93.7809 364.611L86.5687 146.641Z" fill="#DC9839" fill-opacity="0.6"/>
</g>
</g>
<g opacity="0.5">
<path d="M105 162.668L131.044 151.449L157.088 162.668V377.432L131.044 387.449L105 377.432V162.668Z" fill="#DC9839" fill-opacity="0.6"/>
<mask id="mask2_4420_4" style="mask-type:alpha" maskUnits="userSpaceOnUse" x="105" y="151" width="53" height="237">
<path d="M105 162.668L131.044 151.449L157.088 162.668V377.432L131.044 387.449L105 377.432V162.668Z" fill="#7EE8A0"/>
</mask>
<g mask="url(#mask2_4420_4)">
<path d="M86.5687 155.456L131.445 172.685V387.85L93.7809 373.426L86.5687 155.456Z" fill="#DC9839" fill-opacity="0.6"/>
</g>
</g>
</g>
<mask id="mask3_4420_4" style="mask-type:alpha" maskUnits="userSpaceOnUse" x="105" y="10" width="53" height="237">
<path d="M105 21.45L131.044 10.231L157.088 21.45V236.214L131.044 246.231L105 236.214V21.45Z" fill="#7EE8A0"/>
</mask>
<g mask="url(#mask3_4420_4)">
<path d="M86.5688 169.808L131.445 187.037V402.202L93.781 387.778L86.5688 169.808Z" fill="#BF8C44" fill-opacity="0.6"/>
</g>
<mask id="mask4_4420_4" style="mask-type:alpha" maskUnits="userSpaceOnUse" x="149" y="0" width="60" height="270">
<path d="M149 12.7988L178.711 0L208.423 12.7988V257.803L178.711 269.231L149 257.803V12.7988Z" fill="#05030E"/>
</mask>
<g mask="url(#mask4_4420_4)">
<path d="M149 164.799L178.711 152L208.423 164.799V409.803L178.711 421.231L149 409.803V164.799Z" fill="#7EE8A0"/>
<g opacity="0.25">
<path d="M149 141.03L178.711 128.231L208.423 141.03V386.034L178.711 397.462L149 386.034V141.03Z" fill="#7EE8A0"/>
<mask id="mask5_4420_4" style="mask-type:alpha" maskUnits="userSpaceOnUse" x="149" y="128" width="60" height="270">
<path d="M149 141.03L178.711 128.231L208.423 141.03V386.034L178.711 397.462L149 386.034V141.03Z" fill="#7EE8A0"/>
</mask>
<g mask="url(#mask5_4420_4)">
<path d="M127.973 132.802L179.168 152.457V397.919L136.201 381.463L127.973 132.802Z" fill="#75CF92"/>
</g>
</g>
<g opacity="0.5">
<path d="M149 151.086L178.711 138.287L208.423 151.086V396.091L178.711 407.518L149 396.091V151.086Z" fill="#7EE8A0"/>
<mask id="mask6_4420_4" style="mask-type:alpha" maskUnits="userSpaceOnUse" x="149" y="138" width="60" height="270">
<path d="M149 151.086L178.711 138.287L208.423 151.086V396.091L178.711 407.518L149 396.091V151.086Z" fill="#7EE8A0"/>
</mask>
<g mask="url(#mask6_4420_4)">
<path d="M127.973 142.858L179.168 162.513V407.975L136.201 391.52L127.973 142.858Z" fill="#75CF92"/>
</g>
</g>
</g>
<mask id="mask7_4420_4" style="mask-type:alpha" maskUnits="userSpaceOnUse" x="149" y="0" width="60" height="270">
<path d="M149 12.7988L178.711 0L208.423 12.7988V257.803L178.711 269.231L149 257.803V12.7988Z" fill="#7EE8A0"/>
</mask>
<g mask="url(#mask7_4420_4)">
<path d="M127.973 159.231L179.168 178.886V424.348L136.201 407.892L127.973 159.231Z" fill="#75CF92"/>
</g>
<path d="M167.84 91.912C170.192 91.912 172.032 92.632 173.36 94.072C174.688 95.496 175.352 97.552 175.352 100.24C175.352 102.144 174.992 103.776 174.272 105.136C173.568 106.496 172.568 107.528 171.272 108.232C169.976 108.936 168.48 109.288 166.784 109.288C165.888 109.288 165.032 109.192 164.216 109C163.4 108.792 162.704 108.504 162.128 108.136L163.568 105.28C164.384 105.84 165.432 106.12 166.712 106.12C168.136 106.12 169.264 105.704 170.096 104.872C170.928 104.024 171.376 102.808 171.44 101.224C170.432 102.232 169.04 102.736 167.264 102.736C166.192 102.736 165.216 102.52 164.336 102.088C163.456 101.656 162.76 101.048 162.248 100.264C161.736 99.464 161.48 98.544 161.48 97.504C161.48 96.384 161.76 95.4 162.32 94.552C162.88 93.704 163.64 93.056 164.6 92.608C165.576 92.144 166.656 91.912 167.84 91.912ZM168.128 99.832C168.976 99.832 169.664 99.6 170.192 99.136C170.736 98.656 171.008 98.048 171.008 97.312C171.008 96.576 170.744 95.976 170.216 95.512C169.704 95.048 168.992 94.816 168.08 94.816C167.248 94.816 166.568 95.04 166.04 95.488C165.528 95.936 165.272 96.544 165.272 97.312C165.272 98.08 165.528 98.696 166.04 99.16C166.568 99.608 167.264 99.832 168.128 99.832ZM181.105 101.272C179.873 101.272 178.865 100.856 178.081 100.024C177.313 99.176 176.929 98.048 176.929 96.64C176.929 95.232 177.313 94.112 178.081 93.28C178.865 92.432 179.873 92.008 181.105 92.008C182.337 92.008 183.337 92.432 184.105 93.28C184.873 94.112 185.257 95.232 185.257 96.64C185.257 98.048 184.873 99.176 184.105 100.024C183.337 100.856 182.337 101.272 181.105 101.272ZM191.113 92.2H193.969L182.497 109H179.641L191.113 92.2ZM181.105 99.304C181.649 99.304 182.073 99.08 182.377 98.632C182.697 98.184 182.857 97.52 182.857 96.64C182.857 95.76 182.697 95.096 182.377 94.648C182.073 94.2 181.649 93.976 181.105 93.976C180.577 93.976 180.153 94.208 179.833 94.672C179.513 95.12 179.353 95.776 179.353 96.64C179.353 97.504 179.513 98.168 179.833 98.632C180.153 99.08 180.577 99.304 181.105 99.304ZM192.505 109.192C191.705 109.192 190.985 109.008 190.345 108.64C189.721 108.256 189.233 107.712 188.881 107.008C188.529 106.304 188.353 105.488 188.353 104.56C188.353 103.632 188.529 102.816 188.881 102.112C189.233 101.408 189.721 100.872 190.345 100.504C190.985 100.12 191.705 99.928 192.505 99.928C193.737 99.928 194.737 100.352 195.505 101.2C196.289 102.032 196.681 103.152 196.681 104.56C196.681 105.968 196.289 107.096 195.505 107.944C194.737 108.776 193.737 109.192 192.505 109.192ZM192.505 107.224C193.049 107.224 193.473 107 193.777 106.552C194.097 106.088 194.257 105.424 194.257 104.56C194.257 103.696 194.097 103.04 193.777 102.592C193.473 102.128 193.049 101.896 192.505 101.896C191.977 101.896 191.553 102.12 191.233 102.568C190.913 103.016 190.753 103.68 190.753 104.56C190.753 105.44 190.913 106.104 191.233 106.552C191.553 107 191.977 107.224 192.505 107.224Z" fill="#A2DC89"/>
<path d="M119.392 125.537C120.151 125.537 120.843 125.69 121.466 125.996C122.089 126.302 122.582 126.738 122.945 127.305C123.308 127.86 123.489 128.506 123.489 129.243C123.489 130.036 123.291 130.733 122.894 131.334C122.497 131.935 121.953 132.399 121.262 132.728C120.582 133.045 119.823 133.204 118.984 133.204C117.318 133.204 116.015 132.694 115.074 131.674C114.133 130.654 113.663 129.198 113.663 127.305C113.663 125.956 113.918 124.8 114.428 123.837C114.938 122.874 115.646 122.143 116.553 121.644C117.471 121.145 118.531 120.896 119.732 120.896C120.367 120.896 120.973 120.97 121.551 121.117C122.14 121.253 122.639 121.451 123.047 121.712L122.027 123.735C121.438 123.338 120.695 123.14 119.8 123.14C118.791 123.14 117.992 123.435 117.403 124.024C116.814 124.613 116.496 125.469 116.451 126.591C117.154 125.888 118.134 125.537 119.392 125.537ZM118.831 131.147C119.42 131.147 119.896 130.988 120.259 130.671C120.633 130.354 120.82 129.923 120.82 129.379C120.82 128.835 120.633 128.404 120.259 128.087C119.896 127.758 119.409 127.594 118.797 127.594C118.196 127.594 117.703 127.764 117.318 128.104C116.933 128.433 116.74 128.858 116.74 129.379C116.74 129.9 116.927 130.325 117.301 130.654C117.675 130.983 118.185 131.147 118.831 131.147ZM126.909 127.526C126.037 127.526 125.323 127.231 124.767 126.642C124.223 126.041 123.951 125.242 123.951 124.245C123.951 123.248 124.223 122.454 124.767 121.865C125.323 121.264 126.037 120.964 126.909 120.964C127.782 120.964 128.49 121.264 129.034 121.865C129.578 122.454 129.85 123.248 129.85 124.245C129.85 125.242 129.578 126.041 129.034 126.642C128.49 127.231 127.782 127.526 126.909 127.526ZM133.998 121.1H136.021L127.895 133H125.872L133.998 121.1ZM126.909 126.132C127.295 126.132 127.595 125.973 127.81 125.656C128.037 125.339 128.15 124.868 128.15 124.245C128.15 123.622 128.037 123.151 127.81 122.834C127.595 122.517 127.295 122.358 126.909 122.358C126.535 122.358 126.235 122.522 126.008 122.851C125.782 123.168 125.668 123.633 125.668 124.245C125.668 124.857 125.782 125.327 126.008 125.656C126.235 125.973 126.535 126.132 126.909 126.132ZM134.984 133.136C134.418 133.136 133.908 133.006 133.454 132.745C133.012 132.473 132.667 132.088 132.417 131.589C132.168 131.09 132.043 130.512 132.043 129.855C132.043 129.198 132.168 128.62 132.417 128.121C132.667 127.622 133.012 127.243 133.454 126.982C133.908 126.71 134.418 126.574 134.984 126.574C135.857 126.574 136.565 126.874 137.109 127.475C137.665 128.064 137.942 128.858 137.942 129.855C137.942 130.852 137.665 131.651 137.109 132.252C136.565 132.841 135.857 133.136 134.984 133.136ZM134.984 131.742C135.37 131.742 135.67 131.583 135.885 131.266C136.112 130.937 136.225 130.467 136.225 129.855C136.225 129.243 136.112 128.778 135.885 128.461C135.67 128.132 135.37 127.968 134.984 127.968C134.61 127.968 134.31 128.127 134.083 128.444C133.857 128.761 133.743 129.232 133.743 129.855C133.743 130.478 133.857 130.949 134.083 131.266C134.31 131.583 134.61 131.742 134.984 131.742Z" fill="#E99A3D"/>
<defs>
<filter id="filter0_f_4420_4" x="0" y="131" width="319" height="240" filterUnits="userSpaceOnUse" color-interpolation-filters="sRGB">
<feFlood flood-opacity="0" result="BackgroundImageFix"/>
<feBlend mode="normal" in="SourceGraphic" in2="BackgroundImageFix" result="shape"/>
<feGaussianBlur stdDeviation="40" result="effect1_foregroundBlur_4420_4"/>
</filter>
</defs>
</svg>
