<svg width="319" height="396" viewBox="0 0 319 396" fill="none" xmlns="http://www.w3.org/2000/svg">
<g filter="url(#filter0_f_4420_7)">
<ellipse cx="159.5" cy="276" rx="79.5" ry="40" fill="#A2DC89" fill-opacity="0.4"/>
</g>
<mask id="mask0_4420_7" style="mask-type:alpha" maskUnits="userSpaceOnUse" x="111" y="35" width="53" height="237">
<path d="M111 46.45L137.044 35.231L163.088 46.45V261.214L137.044 271.231L111 261.214V46.45Z" fill="#05030E"/>
</mask>
<g mask="url(#mask0_4420_7)">
<path d="M111 117.689L137.044 106.47L163.088 117.689V332.453L137.044 342.47L111 332.453V117.689Z" fill="#D5AB32"/>
<g opacity="0.25">
<path d="M111 96.8535L137.044 85.6345L163.088 96.8535V311.618L137.044 321.635L111 311.618V96.8535Z" fill="#DC9839" fill-opacity="0.6"/>
<mask id="mask1_4420_7" style="mask-type:alpha" maskUnits="userSpaceOnUse" x="111" y="85" width="53" height="237">
<path d="M111 96.8535L137.044 85.6345L163.088 96.8535V311.618L137.044 321.635L111 311.618V96.8535Z" fill="#7EE8A0"/>
</mask>
<g mask="url(#mask1_4420_7)">
<path d="M92.5687 89.6414L137.445 106.871V322.035L99.781 307.611L92.5687 89.6414Z" fill="#DC9839" fill-opacity="0.6"/>
</g>
</g>
<g opacity="0.5">
<path d="M111 105.668L137.044 94.4495L163.088 105.668V320.432L137.044 330.449L111 320.432V105.668Z" fill="#DC9839" fill-opacity="0.6"/>
<mask id="mask2_4420_7" style="mask-type:alpha" maskUnits="userSpaceOnUse" x="111" y="94" width="53" height="237">
<path d="M111 105.668L137.044 94.4495L163.088 105.668V320.432L137.044 330.449L111 320.432V105.668Z" fill="#7EE8A0"/>
</mask>
<g mask="url(#mask2_4420_7)">
<path d="M92.5687 98.4563L137.445 115.685V330.85L99.781 316.426L92.5687 98.4563Z" fill="#DC9839" fill-opacity="0.6"/>
</g>
</g>
</g>
<mask id="mask3_4420_7" style="mask-type:alpha" maskUnits="userSpaceOnUse" x="111" y="35" width="53" height="237">
<path d="M111 46.45L137.044 35.231L163.088 46.45V261.214L137.044 271.231L111 261.214V46.45Z" fill="#7EE8A0"/>
</mask>
<g mask="url(#mask3_4420_7)">
<path d="M92.5688 112.808L137.445 130.037V345.202L99.781 330.778L92.5688 112.808Z" fill="#BF8C44" fill-opacity="0.6"/>
</g>
<mask id="mask4_4420_7" style="mask-type:alpha" maskUnits="userSpaceOnUse" x="155" y="25" width="60" height="270">
<path d="M155 37.7988L184.711 25L214.423 37.7988V282.803L184.711 294.231L155 282.803V37.7988Z" fill="#05030E"/>
</mask>
<g mask="url(#mask4_4420_7)">
<path d="M155 75.7988L184.711 63L214.423 75.7988V320.803L184.711 332.231L155 320.803V75.7988Z" fill="#7EE8A0"/>
<g opacity="0.25">
<path d="M155 52.0297L184.711 39.231L214.423 52.0297V297.034L184.711 308.462L155 297.034V52.0297Z" fill="#7EE8A0"/>
<mask id="mask5_4420_7" style="mask-type:alpha" maskUnits="userSpaceOnUse" x="155" y="39" width="60" height="270">
<path d="M155 52.0297L184.711 39.231L214.423 52.0297V297.034L184.711 308.462L155 297.034V52.0297Z" fill="#7EE8A0"/>
</mask>
<g mask="url(#mask5_4420_7)">
<path d="M133.973 43.802L185.168 63.4572V308.919L142.201 292.463L133.973 43.802Z" fill="#75CF92"/>
</g>
</g>
<g opacity="0.5">
<path d="M155 62.0859L184.711 49.2871L214.423 62.0859V307.091L184.711 318.518L155 307.091V62.0859Z" fill="#7EE8A0"/>
<mask id="mask6_4420_7" style="mask-type:alpha" maskUnits="userSpaceOnUse" x="155" y="49" width="60" height="270">
<path d="M155 62.0859L184.711 49.2871L214.423 62.0859V307.091L184.711 318.518L155 307.091V62.0859Z" fill="#7EE8A0"/>
</mask>
<g mask="url(#mask6_4420_7)">
<path d="M133.973 53.8582L185.168 73.5134V318.975L142.201 302.52L133.973 53.8582Z" fill="#75CF92"/>
</g>
</g>
</g>
<mask id="mask7_4420_7" style="mask-type:alpha" maskUnits="userSpaceOnUse" x="155" y="25" width="60" height="270">
<path d="M155 37.7988L184.711 25L214.423 37.7988V282.803L184.711 294.231L155 282.803V37.7988Z" fill="#7EE8A0"/>
</mask>
<g mask="url(#mask7_4420_7)">
<path d="M133.973 70.231L185.168 89.8862V335.348L142.201 318.892L133.973 70.231Z" fill="#75CF92"/>
</g>
<path d="M170.416 3.2V20H166.528V6.32H163.168V3.2H170.416ZM184.83 11.168C185.662 11.584 186.294 12.128 186.726 12.8C187.174 13.472 187.398 14.248 187.398 15.128C187.398 16.168 187.102 17.08 186.51 17.864C185.918 18.632 185.086 19.232 184.014 19.664C182.942 20.08 181.702 20.288 180.294 20.288C178.886 20.288 177.646 20.08 176.574 19.664C175.518 19.232 174.694 18.632 174.102 17.864C173.526 17.08 173.238 16.168 173.238 15.128C173.238 14.248 173.454 13.472 173.886 12.8C174.334 12.128 174.966 11.584 175.782 11.168C175.158 10.784 174.678 10.304 174.342 9.728C174.006 9.136 173.838 8.464 173.838 7.712C173.838 6.736 174.11 5.888 174.654 5.168C175.198 4.448 175.958 3.896 176.934 3.512C177.91 3.112 179.03 2.912 180.294 2.912C181.574 2.912 182.702 3.112 183.678 3.512C184.67 3.896 185.438 4.448 185.982 5.168C186.526 5.888 186.798 6.736 186.798 7.712C186.798 8.464 186.63 9.136 186.294 9.728C185.958 10.304 185.47 10.784 184.83 11.168ZM180.294 5.768C179.51 5.768 178.878 5.96 178.398 6.344C177.934 6.712 177.702 7.224 177.702 7.88C177.702 8.52 177.934 9.024 178.398 9.392C178.862 9.76 179.494 9.944 180.294 9.944C181.094 9.944 181.734 9.76 182.214 9.392C182.694 9.024 182.934 8.52 182.934 7.88C182.934 7.224 182.694 6.712 182.214 6.344C181.734 5.96 181.094 5.768 180.294 5.768ZM180.294 17.432C181.27 17.432 182.038 17.216 182.598 16.784C183.174 16.336 183.462 15.744 183.462 15.008C183.462 14.272 183.174 13.688 182.598 13.256C182.038 12.824 181.27 12.608 180.294 12.608C179.334 12.608 178.574 12.824 178.014 13.256C177.454 13.688 177.174 14.272 177.174 15.008C177.174 15.76 177.454 16.352 178.014 16.784C178.574 17.216 179.334 17.432 180.294 17.432ZM192.832 12.272C191.6 12.272 190.592 11.856 189.808 11.024C189.04 10.176 188.656 9.048 188.656 7.64C188.656 6.232 189.04 5.112 189.808 4.28C190.592 3.432 191.6 3.008 192.832 3.008C194.064 3.008 195.064 3.432 195.832 4.28C196.6 5.112 196.984 6.232 196.984 7.64C196.984 9.048 196.6 10.176 195.832 11.024C195.064 11.856 194.064 12.272 192.832 12.272ZM202.84 3.2H205.696L194.224 20H191.368L202.84 3.2ZM192.832 10.304C193.376 10.304 193.8 10.08 194.104 9.632C194.424 9.184 194.584 8.52 194.584 7.64C194.584 6.76 194.424 6.096 194.104 5.648C193.8 5.2 193.376 4.976 192.832 4.976C192.304 4.976 191.88 5.208 191.56 5.672C191.24 6.12 191.08 6.776 191.08 7.64C191.08 8.504 191.24 9.168 191.56 9.632C191.88 10.08 192.304 10.304 192.832 10.304ZM204.232 20.192C203.432 20.192 202.712 20.008 202.072 19.64C201.448 19.256 200.96 18.712 200.608 18.008C200.256 17.304 200.08 16.488 200.08 15.56C200.08 14.632 200.256 13.816 200.608 13.112C200.96 12.408 201.448 11.872 202.072 11.504C202.712 11.12 203.432 10.928 204.232 10.928C205.464 10.928 206.464 11.352 207.232 12.2C208.016 13.032 208.408 14.152 208.408 15.56C208.408 16.968 208.016 18.096 207.232 18.944C206.464 19.776 205.464 20.192 204.232 20.192ZM204.232 18.224C204.776 18.224 205.2 18 205.504 17.552C205.824 17.088 205.984 16.424 205.984 15.56C205.984 14.696 205.824 14.04 205.504 13.592C205.2 13.128 204.776 12.896 204.232 12.896C203.704 12.896 203.28 13.12 202.96 13.568C202.64 14.016 202.48 14.68 202.48 15.56C202.48 16.44 202.64 17.104 202.96 17.552C203.28 18 203.704 18.224 204.232 18.224Z" fill="#A2DC89"/>
<path d="M120.253 57.1V69H117.499V59.31H115.119V57.1H120.253ZM131.211 66.756V69H122.218V67.215L126.808 62.88C127.296 62.4153 127.624 62.0187 127.794 61.69C127.964 61.35 128.049 61.0157 128.049 60.687C128.049 60.211 127.885 59.8483 127.556 59.599C127.239 59.3383 126.769 59.208 126.145 59.208C125.624 59.208 125.154 59.31 124.734 59.514C124.315 59.7067 123.964 60.0013 123.68 60.398L121.674 59.106C122.139 58.4147 122.779 57.8763 123.595 57.491C124.411 57.0943 125.346 56.896 126.4 56.896C127.284 56.896 128.055 57.0433 128.712 57.338C129.381 57.6213 129.897 58.0293 130.259 58.562C130.633 59.0833 130.82 59.701 130.82 60.415C130.82 61.061 130.684 61.6673 130.412 62.234C130.14 62.8007 129.613 63.4467 128.831 64.172L126.094 66.756H131.211ZM135.268 63.526C134.395 63.526 133.681 63.2313 133.126 62.642C132.582 62.0413 132.31 61.2423 132.31 60.245C132.31 59.2477 132.582 58.4543 133.126 57.865C133.681 57.2643 134.395 56.964 135.268 56.964C136.14 56.964 136.849 57.2643 137.393 57.865C137.937 58.4543 138.209 59.2477 138.209 60.245C138.209 61.2423 137.937 62.0413 137.393 62.642C136.849 63.2313 136.14 63.526 135.268 63.526ZM142.357 57.1H144.38L136.254 69H134.231L142.357 57.1ZM135.268 62.132C135.653 62.132 135.953 61.9733 136.169 61.656C136.395 61.3387 136.509 60.8683 136.509 60.245C136.509 59.6217 136.395 59.1513 136.169 58.834C135.953 58.5167 135.653 58.358 135.268 58.358C134.894 58.358 134.593 58.5223 134.367 58.851C134.14 59.1683 134.027 59.633 134.027 60.245C134.027 60.857 134.14 61.3273 134.367 61.656C134.593 61.9733 134.894 62.132 135.268 62.132ZM143.343 69.136C142.776 69.136 142.266 69.0057 141.813 68.745C141.371 68.473 141.025 68.0877 140.776 67.589C140.526 67.0903 140.402 66.5123 140.402 65.855C140.402 65.1977 140.526 64.6197 140.776 64.121C141.025 63.6223 141.371 63.2427 141.813 62.982C142.266 62.71 142.776 62.574 143.343 62.574C144.215 62.574 144.924 62.8743 145.468 63.475C146.023 64.0643 146.301 64.8577 146.301 65.855C146.301 66.8523 146.023 67.6513 145.468 68.252C144.924 68.8413 144.215 69.136 143.343 69.136ZM143.343 67.742C143.728 67.742 144.028 67.5833 144.244 67.266C144.47 66.9373 144.584 66.467 144.584 65.855C144.584 65.243 144.47 64.7783 144.244 64.461C144.028 64.1323 143.728 63.968 143.343 63.968C142.969 63.968 142.668 64.1267 142.442 64.444C142.215 64.7613 142.102 65.2317 142.102 65.855C142.102 66.4783 142.215 66.9487 142.442 67.266C142.668 67.5833 142.969 67.742 143.343 67.742Z" fill="#E99A3D"/>
<defs>
<filter id="filter0_f_4420_7" x="0" y="156" width="319" height="240" filterUnits="userSpaceOnUse" color-interpolation-filters="sRGB">
<feFlood flood-opacity="0" result="BackgroundImageFix"/>
<feBlend mode="normal" in="SourceGraphic" in2="BackgroundImageFix" result="shape"/>
<feGaussianBlur stdDeviation="40" result="effect1_foregroundBlur_4420_7"/>
</filter>
</defs>
</svg>
