<svg width="189" height="133" viewBox="0 0 189 133" fill="none" xmlns="http://www.w3.org/2000/svg">
<g filter="url(#filter0_d_4402_2)">
<path d="M66.0909 55.4182L44 33.8182V77.3455L66.0909 55.4182Z" fill="#B4F299"/>
<path d="M75.0909 63.2727L45.1454 33L89.9818 56.2364L75.0909 63.2727Z" fill="#93CB7B"/>
<path d="M66.7455 56.4L44.9818 78L74.2727 63.7636L66.7455 56.4Z" fill="#B4F299"/>
</g>
<path d="M121.98 41.08C123.313 41.08 124.387 41.48 125.2 42.28C126.027 43.08 126.44 44.2667 126.44 45.84V52H123.32V46.32C123.32 45.4667 123.133 44.8333 122.76 44.42C122.387 43.9933 121.847 43.78 121.14 43.78C120.353 43.78 119.727 44.0267 119.26 44.52C118.793 45 118.56 45.72 118.56 46.68V52H115.44V41.24H118.42V42.5C118.833 42.0467 119.347 41.7 119.96 41.46C120.573 41.2067 121.247 41.08 121.98 41.08ZM129.268 41.24H132.388V52H129.268V41.24ZM130.828 39.74C130.255 39.74 129.788 39.5733 129.428 39.24C129.068 38.9067 128.888 38.4933 128.888 38C128.888 37.5067 129.068 37.0933 129.428 36.76C129.788 36.4267 130.255 36.26 130.828 36.26C131.401 36.26 131.868 36.42 132.228 36.74C132.588 37.06 132.768 37.46 132.768 37.94C132.768 38.46 132.588 38.8933 132.228 39.24C131.868 39.5733 131.401 39.74 130.828 39.74ZM149.064 41.08C150.41 41.08 151.477 41.48 152.264 42.28C153.064 43.0667 153.464 44.2533 153.464 45.84V52H150.344V46.32C150.344 45.4667 150.164 44.8333 149.804 44.42C149.457 43.9933 148.957 43.78 148.304 43.78C147.57 43.78 146.99 44.02 146.564 44.5C146.137 44.9667 145.924 45.6667 145.924 46.6V52H142.804V46.32C142.804 44.6267 142.124 43.78 140.764 43.78C140.044 43.78 139.47 44.02 139.044 44.5C138.617 44.9667 138.404 45.6667 138.404 46.6V52H135.284V41.24H138.264V42.48C138.664 42.0267 139.15 41.68 139.724 41.44C140.31 41.2 140.95 41.08 141.644 41.08C142.404 41.08 143.09 41.2333 143.704 41.54C144.317 41.8333 144.81 42.2667 145.184 42.84C145.624 42.28 146.177 41.8467 146.844 41.54C147.524 41.2333 148.264 41.08 149.064 41.08ZM162.62 41.08C163.62 41.08 164.527 41.3133 165.34 41.78C166.167 42.2333 166.814 42.88 167.28 43.72C167.747 44.5467 167.98 45.5133 167.98 46.62C167.98 47.7267 167.747 48.7 167.28 49.54C166.814 50.3667 166.167 51.0133 165.34 51.48C164.527 51.9333 163.62 52.16 162.62 52.16C161.14 52.16 160.014 51.6933 159.24 50.76V52H156.26V37.16H159.38V42.38C160.167 41.5133 161.247 41.08 162.62 41.08ZM162.08 49.6C162.88 49.6 163.534 49.3333 164.04 48.8C164.56 48.2533 164.82 47.5267 164.82 46.62C164.82 45.7133 164.56 44.9933 164.04 44.46C163.534 43.9133 162.88 43.64 162.08 43.64C161.28 43.64 160.62 43.9133 160.1 44.46C159.594 44.9933 159.34 45.7133 159.34 46.62C159.34 47.5267 159.594 48.2533 160.1 48.8C160.62 49.3333 161.28 49.6 162.08 49.6ZM173.929 52.16C172.716 52.16 171.769 51.84 171.089 51.2C170.409 50.5467 170.069 49.6267 170.069 48.44V37.16H173.189V48.26C173.189 48.7133 173.302 49.0667 173.529 49.32C173.769 49.56 174.102 49.68 174.529 49.68C174.689 49.68 174.849 49.66 175.009 49.62C175.182 49.58 175.316 49.5333 175.409 49.48L175.549 51.9C175.029 52.0733 174.489 52.16 173.929 52.16ZM182.305 49.66C182.865 49.66 183.359 49.58 183.785 49.42C184.225 49.2467 184.632 48.98 185.005 48.62L186.665 50.42C185.652 51.58 184.172 52.16 182.225 52.16C181.012 52.16 179.939 51.9267 179.005 51.46C178.072 50.98 177.352 50.32 176.845 49.48C176.339 48.64 176.085 47.6867 176.085 46.62C176.085 45.5667 176.332 44.62 176.825 43.78C177.332 42.9267 178.019 42.2667 178.885 41.8C179.765 41.32 180.752 41.08 181.845 41.08C182.872 41.08 183.805 41.3 184.645 41.74C185.485 42.1667 186.152 42.7933 186.645 43.62C187.152 44.4333 187.405 45.4 187.405 46.52L179.445 48.06C179.672 48.5933 180.025 48.9933 180.505 49.26C180.999 49.5267 181.599 49.66 182.305 49.66ZM181.845 43.44C181.059 43.44 180.419 43.6933 179.925 44.2C179.432 44.7067 179.172 45.4067 179.145 46.3L184.385 45.28C184.239 44.72 183.939 44.2733 183.485 43.94C183.032 43.6067 182.485 43.44 181.845 43.44ZM121.92 71.48C121.613 71.7067 121.233 71.88 120.78 72C120.34 72.1067 119.88 72.16 119.4 72.16C118.107 72.16 117.113 71.8333 116.42 71.18C115.727 70.5267 115.38 69.5667 115.38 68.3V58.86H118.5V61.48H121.16V63.88H118.5V68.26C118.5 68.7133 118.613 69.0667 118.84 69.32C119.067 69.56 119.393 69.68 119.82 69.68C120.3 69.68 120.727 69.5467 121.1 69.28L121.92 71.48ZM128.47 72.16C127.337 72.16 126.317 71.9267 125.41 71.46C124.517 70.98 123.817 70.32 123.31 69.48C122.803 68.64 122.55 67.6867 122.55 66.62C122.55 65.5533 122.803 64.6 123.31 63.76C123.817 62.92 124.517 62.2667 125.41 61.8C126.317 61.32 127.337 61.08 128.47 61.08C129.603 61.08 130.617 61.32 131.51 61.8C132.403 62.2667 133.103 62.92 133.61 63.76C134.117 64.6 134.37 65.5533 134.37 66.62C134.37 67.6867 134.117 68.64 133.61 69.48C133.103 70.32 132.403 70.98 131.51 71.46C130.617 71.9267 129.603 72.16 128.47 72.16ZM128.47 69.6C129.27 69.6 129.923 69.3333 130.43 68.8C130.95 68.2533 131.21 67.5267 131.21 66.62C131.21 65.7133 130.95 64.9933 130.43 64.46C129.923 63.9133 129.27 63.64 128.47 63.64C127.67 63.64 127.01 63.9133 126.49 64.46C125.97 64.9933 125.71 65.7133 125.71 66.62C125.71 67.5267 125.97 68.2533 126.49 68.8C127.01 69.3333 127.67 69.6 128.47 69.6ZM141.076 67.78L139.576 69.26V72H136.456V57.16H139.576V65.56L144.136 61.24H147.856L143.376 65.8L148.256 72H144.476L141.076 67.78ZM154.61 69.66C155.17 69.66 155.663 69.58 156.09 69.42C156.53 69.2467 156.937 68.98 157.31 68.62L158.97 70.42C157.957 71.58 156.477 72.16 154.53 72.16C153.317 72.16 152.243 71.9267 151.31 71.46C150.377 70.98 149.657 70.32 149.15 69.48C148.643 68.64 148.39 67.6867 148.39 66.62C148.39 65.5667 148.637 64.62 149.13 63.78C149.637 62.9267 150.323 62.2667 151.19 61.8C152.07 61.32 153.057 61.08 154.15 61.08C155.177 61.08 156.11 61.3 156.95 61.74C157.79 62.1667 158.457 62.7933 158.95 63.62C159.457 64.4333 159.71 65.4 159.71 66.52L151.75 68.06C151.977 68.5933 152.33 68.9933 152.81 69.26C153.303 69.5267 153.903 69.66 154.61 69.66ZM154.15 63.44C153.363 63.44 152.723 63.6933 152.23 64.2C151.737 64.7067 151.477 65.4067 151.45 66.3L156.69 65.28C156.543 64.72 156.243 64.2733 155.79 63.94C155.337 63.6067 154.79 63.44 154.15 63.44ZM168.347 61.08C169.681 61.08 170.754 61.48 171.567 62.28C172.394 63.08 172.807 64.2667 172.807 65.84V72H169.687V66.32C169.687 65.4667 169.501 64.8333 169.127 64.42C168.754 63.9933 168.214 63.78 167.507 63.78C166.721 63.78 166.094 64.0267 165.627 64.52C165.161 65 164.927 65.72 164.927 66.68V72H161.807V61.24H164.787V62.5C165.201 62.0467 165.714 61.7 166.327 61.46C166.941 61.2067 167.614 61.08 168.347 61.08Z" fill="white"/>
<defs>
<filter id="filter0_d_4402_2" x="0" y="0" width="133.982" height="133" filterUnits="userSpaceOnUse" color-interpolation-filters="sRGB">
<feFlood flood-opacity="0" result="BackgroundImageFix"/>
<feColorMatrix in="SourceAlpha" type="matrix" values="0 0 0 0 0 0 0 0 0 0 0 0 0 0 0 0 0 0 127 0" result="hardAlpha"/>
<feOffset dy="11"/>
<feGaussianBlur stdDeviation="22"/>
<feComposite in2="hardAlpha" operator="out"/>
<feColorMatrix type="matrix" values="0 0 0 0 0.637184 0 0 0 0 0.8625 0 0 0 0 0.539062 0 0 0 0.7 0"/>
<feBlend mode="normal" in2="BackgroundImageFix" result="effect1_dropShadow_4402_2"/>
<feBlend mode="normal" in="SourceGraphic" in2="effect1_dropShadow_4402_2" result="shape"/>
</filter>
</defs>
</svg>
